# xmcd CD database file
#
# Track frame offsets:
#	150
#	16274
#	35341
#	51041
#	71065
#	90309
#	100061
#	113229
#	127961
#	142749
#	161649
#	178836
#	192306
#	209051
#	224839
#	246244
#	267281
#	284306
#	299976
#	313754
#
# Disc length: 4496 seconds
#
# Revision: 1
# Processed by: cddbd v1.5.2PL0 Copyright (c) Steve Scherf et al.
# Submitted via: CDex 1.51
#
DISCID=3a118e14
DTITLE=Chitãozinho and Xororó - A Arte de Chitãozinho and Xororó
DYEAR=2003
DGENRE=Country
TTITLE0=Coração Sertanejo
TTITLE1=No Rancho Fundo
TTITLE2=Bailão de Peão
TTITLE3=Berrante de Ouro
TTITLE4=Nuvem de Lágrimas
TTITLE5=Irmãos Coragem: ao Vivo
TTITLE6=Saco de Ouro
TTITLE7=Brigas
TTITLE8=Caboclo na Cidade
TTITLE9=Galopeira (Galopera)/ Vá pro Inferno com Seu Amor
TTITLE10=O Rio
TTITLE11=Cavalo Enxuto
TTITLE12=Frete
TTITLE13=Hino de Reis
TTITLE14=Travessia: ao Vivo
TTITLE15=Caipira
TTITLE16=Asa Branca
TTITLE17=Gente Humilde
TTITLE18=Fio de Cabelo: ao Vivo
TTITLE19=Disparada
EXTD=YEAR: 2003
EXTT0=
EXTT1=
EXTT2=
EXTT3=
EXTT4=
EXTT5=
EXTT6=
EXTT7=
EXTT8=
EXTT9=
EXTT10=
EXTT11=
EXTT12=
EXTT13=
EXTT14=
EXTT15=
EXTT16=
EXTT17=
EXTT18=
EXTT19=
PLAYORDER=
